<svg xmlns="http://www.w3.org/2000/svg" viewBox="0 0 800 600" class="w-full h-full">
  <defs>
    <linearGradient id="grassGradient2" x1="0%" y1="0%" x2="0%" y2="100%">
      <stop offset="0%" style="stop-color:#4ade80"/>
      <stop offset="100%" style="stop-color:#16a34a"/>
    </linearGradient>
    <linearGradient id="skyGradient2" x1="0%" y1="0%" x2="0%" y2="100%">
      <stop offset="0%" style="stop-color:#60a5fa"/>
      <stop offset="100%" style="stop-color:#3b82f6"/>
    </linearGradient>
  </defs>
  
  <!-- Sky background -->
  <rect width="800" height="300" fill="url(#skyGradient2)"/>
  
  <!-- Field -->
  <rect x="0" y="300" width="800" height="300" fill="url(#grassGradient2)"/>
  
  <!-- Changing room building -->
  <rect x="50" y="150" width="200" height="150" fill="#6b7280"/>
  <rect x="50" y="130" width="200" height="20" fill="#4b5563"/>
  
  <!-- Building details -->
  <rect x="70" y="170" width="30" height="50" fill="#1f2937"/>
  <rect x="120" y="170" width="30" height="50" fill="#1f2937"/>
  <rect x="170" y="170" width="30" height="50" fill="#1f2937"/>
  <rect x="220" y="170" width="20" height="80" fill="#374151"/>
  
  <!-- Equipment storage -->
  <rect x="600" y="180" width="120" height="120" fill="#9ca3af"/>
  <rect x="600" y="160" width="120" height="20" fill="#6b7280"/>
  <rect x="620" y="200" width="25" height="40" fill="#374151"/>
  <rect x="665" y="200" width="25" height="40" fill="#374151"/>
  
  <!-- Spectator benches -->
  <rect x="100" y="350" width="80" height="15" fill="#8b5cf6"/>
  <rect x="100" y="335" width="80" height="10" fill="#7c3aed"/>
  <rect x="200" y="350" width="80" height="15" fill="#8b5cf6"/>
  <rect x="200" y="335" width="80" height="10" fill="#7c3aed"/>
  <rect x="300" y="350" width="80" height="15" fill="#8b5cf6"/>
  <rect x="300" y="335" width="80" height="10" fill="#7c3aed"/>
  
  <!-- Side field markings -->
  <rect x="50" y="380" width="700" height="160" fill="none" stroke="white" stroke-width="3"/>
  
  <!-- Center area -->
  <line x1="400" y1="380" x2="400" y2="540" stroke="white" stroke-width="2"/>
  <circle cx="400" cy="460" r="40" fill="none" stroke="white" stroke-width="2"/>
  
  <!-- Corner areas -->
  <path d="M50 380 A 8 8 0 0 1 58 388" fill="none" stroke="white" stroke-width="2"/>
  <path d="M750 380 A 8 8 0 0 0 742 388" fill="none" stroke="white" stroke-width="2"/>
  <path d="M50 540 A 8 8 0 0 0 58 532" fill="none" stroke="white" stroke-width="2"/>
  <path d="M750 540 A 8 8 0 0 1 742 532" fill="none" stroke="white" stroke-width="2"/>
  
  <!-- Goals -->
  <rect x="40" y="440" width="10" height="40" fill="#e5e7eb"/>
  <rect x="750" y="440" width="10" height="40" fill="#e5e7eb"/>
  
  <!-- Players silhouettes -->
  <circle cx="150" cy="420" r="4" fill="#1f2937"/>
  <rect x="148" y="424" width="4" height="12" fill="#1f2937"/>
  <rect x="146" y="436" width="8" height="8" fill="#1f2937"/>
  
  <circle cx="300" cy="480" r="4" fill="#1f2937"/>
  <rect x="298" y="484" width="4" height="12" fill="#1f2937"/>
  <rect x="296" y="496" width="8" height="8" fill="#1f2937"/>
  
  <circle cx="500" cy="440" r="4" fill="#1f2937"/>
  <rect x="498" y="444" width="4" height="12" fill="#1f2937"/>
  <rect x="496" y="456" width="8" height="8" fill="#1f2937"/>
  
  <!-- Ball -->
  <circle cx="380" cy="450" r="5" fill="white"/>
  <path d="M375 450 A 5 5 0 0 1 385 450" fill="none" stroke="black" stroke-width="1"/>
  <path d="M380 445 A 5 5 0 0 1 380 455" fill="none" stroke="black" stroke-width="1"/>
  
  <!-- Floodlight poles -->
  <rect x="120" y="100" width="4" height="80" fill="#374151"/>
  <circle cx="122" cy="95" r="8" fill="#fbbf24"/>
  <rect x="680" y="100" width="4" height="80" fill="#374151"/>
  <circle cx="682" cy="95" r="8" fill="#fbbf24"/>
  
  <!-- Trees in background -->
  <circle cx="450" cy="180" r="25" fill="#16a34a"/>
  <rect x="448" y="180" width="4" height="30" fill="#8b4513"/>
  <circle cx="520" cy="160" r="30" fill="#16a34a"/>
  <rect x="518" y="160" width="4" height="35" fill="#8b4513"/>
  
  <!-- Parking area -->
  <rect x="300" y="50" width="200" height="80" fill="#6b7280"/>
  <rect x="310" y="60" width="35" height="15" fill="#ef4444"/>
  <rect x="350" y="60" width="35" height="15" fill="#3b82f6"/>
  <rect x="390" y="60" width="35" height="15" fill="#10b981"/>
  <rect x="430" y="60" width="35" height="15" fill="#f59e0b"/>
  <rect x="470" y="60" width="25" height="15" fill="#8b5cf6"/>
  
  <!-- Entrance gate -->
  <rect x="380" y="130" width="40" height="3" fill="#374151"/>
  <rect x="385" y="120" width="5" height="15" fill="#374151"/>
  <rect x="410" y="120" width="5" height="15" fill="#374151"/>
</svg>
