<svg xmlns="http://www.w3.org/2000/svg" viewBox="0 0 800 600" class="w-full h-full">
  <defs>
    <linearGradient id="fieldGradient" x1="0%" y1="0%" x2="0%" y2="100%">
      <stop offset="0%" style="stop-color:#4ade80"/>
      <stop offset="100%" style="stop-color:#16a34a"/>
    </linearGradient>
    <linearGradient id="standGradient" x1="0%" y1="0%" x2="0%" y2="100%">
      <stop offset="0%" style="stop-color:#6b7280"/>
      <stop offset="100%" style="stop-color:#374151"/>
    </linearGradient>
  </defs>
  
  <!-- Field background -->
  <rect width="800" height="600" fill="url(#fieldGradient)"/>
  
  <!-- Stadium stands in background -->
  <rect x="0" y="0" width="800" height="150" fill="url(#standGradient)"/>
  <rect x="50" y="50" width="700" height="100" fill="#4b5563"/>
  
  <!-- Seating rows -->
  <g opacity="0.7">
    <rect x="60" y="60" width="680" height="8" fill="#ef4444"/>
    <rect x="60" y="72" width="680" height="8" fill="#3b82f6"/>
    <rect x="60" y="84" width="680" height="8" fill="#ef4444"/>
    <rect x="60" y="96" width="680" height="8" fill="#3b82f6"/>
    <rect x="60" y="108" width="680" height="8" fill="#ef4444"/>
    <rect x="60" y="120" width="680" height="8" fill="#3b82f6"/>
    <rect x="60" y="132" width="680" height="8" fill="#ef4444"/>
  </g>
  
  <!-- Field area -->
  <rect x="0" y="150" width="800" height="450" fill="url(#fieldGradient)"/>
  
  <!-- Field markings -->
  <!-- Touchlines -->
  <rect x="80" y="200" width="640" height="300" fill="none" stroke="white" stroke-width="4"/>
  
  <!-- Center line and circle -->
  <line x1="400" y1="200" x2="400" y2="500" stroke="white" stroke-width="3"/>
  <circle cx="400" cy="350" r="60" fill="none" stroke="white" stroke-width="3"/>
  <circle cx="400" cy="350" r="3" fill="white"/>
  
  <!-- Penalty areas -->
  <rect x="80" y="270" width="100" height="160" fill="none" stroke="white" stroke-width="3"/>
  <rect x="620" y="270" width="100" height="160" fill="none" stroke="white" stroke-width="3"/>
  
  <!-- Goal areas -->
  <rect x="80" y="310" width="40" height="80" fill="none" stroke="white" stroke-width="2"/>
  <rect x="680" y="310" width="40" height="80" fill="none" stroke="white" stroke-width="2"/>
  
  <!-- Goals -->
  <rect x="70" y="325" width="10" height="50" fill="#e5e7eb" stroke="#9ca3af" stroke-width="1"/>
  <rect x="720" y="325" width="10" height="50" fill="#e5e7eb" stroke="#9ca3af" stroke-width="1"/>
  
  <!-- Goal nets -->
  <path d="M70 325 L60 320 L60 380 L70 375 Z" fill="none" stroke="#9ca3af" stroke-width="1"/>
  <path d="M730 325 L740 320 L740 380 L730 375 Z" fill="none" stroke="#9ca3af" stroke-width="1"/>
  
  <!-- Penalty arcs -->
  <path d="M 180 290 A 60 60 0 0 1 180 410" fill="none" stroke="white" stroke-width="3"/>
  <path d="M 620 290 A 60 60 0 0 0 620 410" fill="none" stroke="white" stroke-width="3"/>
  
  <!-- Corner flags -->
  <rect x="78" y="196" width="2" height="20" fill="#fbbf24"/>
  <rect x="78" y="498" width="2" height="20" fill="#fbbf24"/>
  <rect x="720" y="196" width="2" height="20" fill="#fbbf24"/>
  <rect x="720" y="498" width="2" height="20" fill="#fbbf24"/>
  
  <!-- Corner flag triangles -->
  <polygon points="80,198 90,203 80,208" fill="#ef4444"/>
  <polygon points="80,500 90,505 80,510" fill="#ef4444"/>
  <polygon points="722,198 712,203 722,208" fill="#ef4444"/>
  <polygon points="722,500 712,505 722,510" fill="#ef4444"/>
  
  <!-- Floodlights -->
  <g opacity="0.8">
    <rect x="150" y="60" width="6" height="100" fill="#374151"/>
    <circle cx="153" cy="55" r="10" fill="#fbbf24"/>
    <rect x="300" y="60" width="6" height="100" fill="#374151"/>
    <circle cx="303" cy="55" r="10" fill="#fbbf24"/>
    <rect x="450" y="60" width="6" height="100" fill="#374151"/>
    <circle cx="453" cy="55" r="10" fill="#fbbf24"/>
    <rect x="600" y="60" width="6" height="100" fill="#374151"/>
    <circle cx="603" cy="55" r="10" fill="#fbbf24"/>
  </g>
  
  <!-- Grass texture lines -->
  <g opacity="0.3">
    <line x1="100" y1="200" x2="100" y2="500" stroke="#16a34a" stroke-width="1"/>
    <line x1="150" y1="200" x2="150" y2="500" stroke="#16a34a" stroke-width="1"/>
    <line x1="200" y1="200" x2="200" y2="500" stroke="#16a34a" stroke-width="1"/>
    <line x1="250" y1="200" x2="250" y2="500" stroke="#16a34a" stroke-width="1"/>
    <line x1="300" y1="200" x2="300" y2="500" stroke="#16a34a" stroke-width="1"/>
    <line x1="350" y1="200" x2="350" y2="500" stroke="#16a34a" stroke-width="1"/>
    <line x1="450" y1="200" x2="450" y2="500" stroke="#16a34a" stroke-width="1"/>
    <line x1="500" y1="200" x2="500" y2="500" stroke="#16a34a" stroke-width="1"/>
    <line x1="550" y1="200" x2="550" y2="500" stroke="#16a34a" stroke-width="1"/>
    <line x1="600" y1="200" x2="600" y2="500" stroke="#16a34a" stroke-width="1"/>
    <line x1="650" y1="200" x2="650" y2="500" stroke="#16a34a" stroke-width="1"/>
    <line x1="700" y1="200" x2="700" y2="500" stroke="#16a34a" stroke-width="1"/>
  </g>
  
  <!-- Stadium roof structure -->
  <polygon points="50,40 750,40 720,10 80,10" fill="#1f2937" opacity="0.8"/>
  
  <!-- Light beams -->
  <g opacity="0.2">
    <polygon points="153,65 143,200 163,200" fill="#fbbf24"/>
    <polygon points="303,65 293,200 313,200" fill="#fbbf24"/>
    <polygon points="453,65 443,200 463,200" fill="#fbbf24"/>
    <polygon points="603,65 593,200 613,200" fill="#fbbf24"/>
  </g>
</svg>
